<svg width="20" height="20" viewBox="0 0 24 24" fill="none" xmlns="http://www.w3.org/2000/svg">
  <circle cx="12" cy="12" r="3" stroke="currentColor" stroke-width="2"/>
  <path d="M19.4 15C19.7 14.1 20 13.1 20 12C20 10.9 19.7 9.9 19.4 9L21.8 7.6L20.4 4.8L18 6.2C17.1 5.9 16.1 5.6 15 5.6C13.9 5.6 12.9 5.9 12 6.2L9.6 4.8L8.2 7.6L10.6 9C10.3 9.9 10 10.9 10 12C10 13.1 10.3 14.1 10.6 15L8.2 16.4L9.6 19.2L12 17.8C12.9 18.1 13.9 18.4 15 18.4C16.1 18.4 17.1 18.1 18 17.8L20.4 19.2L21.8 16.4L19.4 15Z" stroke="currentColor" stroke-width="2" stroke-linecap="round" stroke-linejoin="round"/>
</svg>